<svg width="21" height="21" viewBox="0 0 21 21" fill="none" xmlns="http://www.w3.org/2000/svg">
<path fill-rule="evenodd" clip-rule="evenodd" d="M5.42188 5.87109V4.87109H2.42188V7.87109H18.4219V4.87109H15.4219V5.87109H13.4219V4.87109H7.42188V5.87109H5.42188ZM13.4219 2.87109H7.42188V0.871094H5.42188V2.87109H2.42188C1.31731 2.87109 0.421875 3.76652 0.421875 4.87109V7.87109V9.87109V18.8711C0.421875 19.9757 1.31731 20.8711 2.42188 20.8711H18.4219C19.5264 20.8711 20.4219 19.9757 20.4219 18.8711V9.87109V7.87109V4.87109C20.4219 3.76652 19.5264 2.87109 18.4219 2.87109H15.4219V0.871094H13.4219V2.87109ZM18.4219 9.87109V18.8711H2.42188V9.87109H18.4219Z" fill="#9CA0AB"/>
</svg>
