<svg width="16" height="20" viewBox="0 0 16 20" fill="none" xmlns="http://www.w3.org/2000/svg">
<path fill-rule="evenodd" clip-rule="evenodd" d="M10.4219 4C10.4219 5.10457 9.52644 6 8.42188 6C7.31731 6 6.42188 5.10457 6.42188 4C6.42188 2.89543 7.31731 2 8.42188 2C9.52644 2 10.4219 2.89543 10.4219 4ZM12.4219 4C12.4219 6.20914 10.631 8 8.42188 8C6.21274 8 4.42188 6.20914 4.42188 4C4.42188 1.79086 6.21274 0 8.42188 0C10.631 0 12.4219 1.79086 12.4219 4ZM2.92188 15C2.92188 13.3431 4.26502 12 5.92188 12H10.9219C12.5787 12 13.9219 13.3431 13.9219 15V18H2.92188V15ZM0.921875 15C0.921875 12.2386 3.16045 10 5.92188 10H10.9219C13.6833 10 15.9219 12.2386 15.9219 15V18V20H13.9219H2.92188H0.921875V18V15Z" fill="#9CA0AB"/>
</svg>
