<svg width="60" height="59" viewBox="0 0 60 59" fill="none" xmlns="http://www.w3.org/2000/svg">
<path fill-rule="evenodd" clip-rule="evenodd" d="M29.9049 9.83398C19.0433 9.83398 10.2383 18.639 10.2383 29.5006C10.2383 40.3623 19.0433 49.1673 29.9049 49.1673C40.7665 49.1673 49.5716 40.3623 49.5716 29.5006C49.5716 18.639 40.7665 9.83398 29.9049 9.83398ZM29.9049 4.91731C16.3279 4.91731 5.32161 15.9236 5.32161 29.5006C5.32161 43.0777 16.3279 54.084 29.9049 54.084C43.4819 54.084 54.4883 43.0777 54.4883 29.5006C54.4883 15.9236 43.4819 4.91731 29.9049 4.91731Z" fill="white"/>
<path d="M32.3639 30.7298C32.3639 31.4087 31.8136 31.959 31.1348 31.959H28.6764C27.9976 31.959 27.4473 31.4087 27.4473 30.7298V18.4382C27.4473 17.7593 27.9976 17.209 28.6764 17.209H31.1348C31.8136 17.209 32.3639 17.7593 32.3639 18.4382V30.7298Z" fill="white"/>
<path d="M32.3639 40.5632C32.3639 41.242 31.8136 41.7923 31.1348 41.7923H28.6764C27.9976 41.7923 27.4473 41.242 27.4473 40.5632V38.1048C27.4473 37.426 27.9976 36.8757 28.6764 36.8757H31.1348C31.8136 36.8757 32.3639 37.426 32.3639 38.1048V40.5632Z" fill="white"/>
</svg>
