<svg width="209" height="161" viewBox="0 0 209 161" fill="none" xmlns="http://www.w3.org/2000/svg">
<ellipse rx="8.34244" ry="8.35345" transform="matrix(-1 0 0 1 188.365 112.111)" fill="#97DBC4"/>
<ellipse rx="4.39076" ry="4.39655" transform="matrix(-1 0 0 1 204.609 33.4141)" fill="#FF9794"/>
<path d="M90.0275 133.453C91.5933 125.892 100.141 104.109 104.476 94.1808C105.214 93.585 106.673 92.9225 106.611 95.0386C106.535 97.6837 95.2857 128.876 94.0044 131.914C92.7133 134.976 91.2967 137.925 90.3213 137.364C89.5409 136.915 89.7787 134.654 90.0275 133.453Z" fill="#142784"/>
<path d="M133.387 142.736C131.887 135.162 131.296 111.844 131.434 101.052C131.883 100.227 132.974 99.0724 133.743 101.052C134.704 103.527 136.465 136.55 136.465 139.836C136.465 143.147 136.305 146.4 135.184 146.243C134.287 146.118 133.626 143.939 133.387 142.736Z" fill="#142784"/>
<path d="M154.104 131.886C151.117 124.744 145.875 101.987 143.851 91.3764C144.127 90.4818 144.966 89.1413 146.115 90.9364C147.553 93.1802 155.885 125.233 156.542 128.455C157.204 131.702 157.698 134.923 156.568 134.984C155.663 135.032 154.578 133.021 154.104 131.886Z" fill="#142784"/>
<path d="M110.7 42.9551C103.555 50.5277 96.7148 65.7138 94.3586 66.8274C92.0024 67.8668 69.9603 55.2048 69.9603 55.2048L68.6682 59.5851C68.6682 59.5851 91.0903 73.0227 94.3586 74.359C97.6269 75.6954 113.816 52.8291 113.816 52.8291L110.7 42.9551Z" fill="#FFCFBA"/>
<path d="M115.409 38.6094C120.953 25.1813 135.275 24.5801 141.845 24.5801C154.44 24.58 163.269 33.6647 165.256 40.5913C167.243 47.518 174.88 79.7348 159.953 98.305C145.025 116.875 120.878 115.304 101.121 110.304C81.3635 105.305 78.7292 88.7342 78.7292 85.0202C78.7292 81.3062 78.4365 72.0211 93.9495 67.4499C109.462 62.8788 108.479 55.3946 115.409 38.6094Z" fill="#8798E7"/>
<path fill-rule="evenodd" clip-rule="evenodd" d="M155.956 41.6738C142.547 49.6627 142.381 62.3153 144.004 67.6882L145.006 67.3997C143.481 62.348 143.596 50.2323 156.5 42.5445L155.956 41.6738Z" fill="#7387E9"/>
<path d="M88.5056 114.599C100.211 110.219 111.004 101.385 122.633 102.053L138.67 101.979C138.67 101.979 150.451 102.606 155.171 95.8308C157.115 92.4927 156.228 87.0561 156.228 87.0561L132.134 79.038C132.134 79.038 127.117 77.5532 100.515 83.4925C93.294 85.1258 83.8691 88.8378 77.9406 91.956C65.8554 98.3407 62.3591 104.057 57.8747 116.307C53.3903 128.557 42.5213 167.162 42.5213 167.162C42.5213 167.162 50.426 171.914 56.2785 169.167C63.6286 165.952 76.822 152.963 70.7959 126.727C70.1879 122.199 76.8005 118.98 88.5056 114.599Z" fill="#516AE4"/>
<path d="M156.227 87.0551L132.056 79.0371L154.554 79.4083L156.227 87.0551Z" fill="#516AE4"/>
<path d="M154.555 79.4077C154.555 79.4077 145.206 56.6899 140.873 49.7855C131.144 34.2691 113.511 36.1251 107.582 43.772C104.618 47.6325 108.646 58.1747 112.295 61.4413C119.591 67.9746 130.612 78.9622 130.612 78.9622L154.555 79.4077Z" fill="white"/>
<path fill-rule="evenodd" clip-rule="evenodd" d="M55.8945 111.371C61.281 114.274 69.8526 118.076 79.9107 120.397C97.2145 124.389 107.076 113.138 110.797 108.602C112.116 106.994 113.458 104.2 115.114 100.754C118.13 94.4792 122.185 86.0407 129.031 78.6609C135.623 71.5552 154.463 71.5032 168.789 72.9652C167.919 85.2093 164.678 97.7553 156.826 107.515C136.613 132.64 103.915 130.514 77.163 123.749C67.1904 121.228 60.4397 116.531 55.8945 111.371Z" fill="#B8C2EF"/>
<path d="M89.1132 33.3794C88.1251 28.4052 91.2414 23.6538 96.0299 22.7629C100.818 21.872 105.455 25.2129 106.443 30.2612C107.431 35.2354 103.631 41.9913 99.9062 42.6595C96.0299 43.3277 90.1013 38.3535 89.1132 33.3794Z" fill="#FFCFBA"/>
<path d="M65.1721 83.5654C73.4568 81.2639 92.0026 83.8623 114.805 80.5215L81.5897 90.6799C87.0562 90.6823 97.9927 91.6337 103.784 95.6666C115.565 102.645 100.667 110.738 103.784 115.341C72.3167 102.423 65.2481 103.388 60.2316 98.1166C56.6593 94.3303 59.2435 85.1987 65.1721 83.5654Z" fill="#516AE4"/>
<path fill-rule="evenodd" clip-rule="evenodd" d="M65.6733 83.4282C65.5949 83.1572 65.3062 82.9994 65.0285 83.0759C61.8359 83.9555 59.6105 86.8241 58.6383 89.884C57.6703 92.9307 57.8807 96.3809 59.8456 98.4635L59.8471 98.4651C62.4631 101.214 65.6242 102.324 71.9238 104.347C72.3248 104.476 72.7391 104.608 73.1673 104.745C79.4928 106.771 88.8625 109.77 103.579 115.812C103.845 115.921 104.152 115.799 104.264 115.54C104.376 115.28 104.251 114.981 103.985 114.872C89.2286 108.814 79.8274 105.804 73.4937 103.776C73.0655 103.639 72.6513 103.507 72.2504 103.378C65.8954 101.337 63.0138 100.293 60.6135 97.7717C59.0068 96.0679 58.7234 93.0595 59.6364 90.1861C60.5454 87.3253 62.5764 84.8113 65.3124 84.0576C65.5901 83.9811 65.7517 83.6993 65.6733 83.4282ZM92.6578 91.1616C88.48 90.4128 84.3471 90.1726 81.5884 90.1714C81.2998 90.1712 81.0657 90.3995 81.0656 90.6811C81.0655 90.9628 81.2993 91.1912 81.5879 91.1914C84.2956 91.1925 88.3642 91.4292 92.469 92.1649C96.5869 92.9029 100.678 94.1325 103.479 96.0832C103.713 96.2468 104.04 96.1936 104.207 95.9643C104.375 95.735 104.32 95.4165 104.086 95.2529C101.096 93.1707 96.8225 91.9081 92.6578 91.1616Z" fill="#2F4DDF"/>
<path d="M108.345 100.939C106.825 98.1176 104.164 96.7812 104.24 99.3054C104.316 101.83 104.62 104.874 103.86 106.136C103.024 107.472 101.352 114.525 103.86 115.416C106.368 116.307 106.749 110.293 107.661 106.655C108.497 103.092 108.345 100.939 108.345 100.939Z" fill="#142784"/>
<path d="M104.237 99.3047C104.389 102.349 104.389 105.095 103.857 106.135L107.201 107.248C107.201 107.248 111.002 108.882 112.066 109.401L117.234 105.17L104.237 99.3047Z" fill="#FFCFBA"/>
<path d="M107.128 116.083C106.368 118.979 107.585 119.498 107.585 119.498L108.497 120.389C108.497 120.389 118.454 110.218 120.43 108.214L117.161 105.244L111.005 109.03C111.309 109.996 107.889 113.188 107.128 116.083Z" fill="#0F1D62"/>
<path d="M120.43 108.139L119.29 107.1L107.585 119.498L108.649 120.463L120.43 108.139Z" fill="#2F4DDF"/>
<path d="M135.172 45.9252C140.796 50.6024 144.901 62.8521 141.176 62.2582C129.775 60.4022 127.343 50.5281 125.595 46.5934C123.847 42.6586 128.407 40.2086 135.172 45.9252Z" fill="#FFCFBA"/>
<path d="M68.9704 64.5605L86.832 85.2738H64.3339L47.3844 64.5605H68.9704Z" fill="#D9DEF9"/>
<path d="M137.379 54.611C136.847 58.9912 130.614 77.6146 125.294 86.0781C122.816 91.1376 118.605 91.3603 116.021 91.1376C105.608 90.3209 89.9505 84.6786 86.8342 83.7877C81.8937 82.3771 79.4615 84.3074 76.6493 82.5256C73.837 80.8181 72.0888 75.547 75.4331 76.4379C78.7775 77.3288 81.3617 78.8136 81.3617 78.8136C81.3617 78.8136 79.0815 76.6606 79.6135 75.9182C80.1456 75.1758 82.6538 77.7742 83.4139 78.3681C84.934 79.556 111.156 83.268 113.817 83.0453C116.477 82.8226 123.318 47.1127 125.294 44.2915C127.27 41.4703 137.379 54.611 137.379 54.611Z" fill="#FFCFBA"/>
<path d="M71.4023 56.0971C68.3621 53.6471 66.3099 54.835 64.6377 57.4334C62.9656 60.0319 65.6258 62.3333 66.3099 61.2197C66.9939 60.0319 68.5901 59.8091 68.5901 59.8091L71.4023 56.0971Z" fill="#FFCFBA"/>
<path d="M65.2475 63.2244C65.4755 63.2244 65.7035 63.1502 65.8556 62.9275L73.0002 53.87C73.2283 53.5731 73.1522 53.1276 72.8482 52.8307C72.5442 52.6079 72.0881 52.6822 71.7841 52.9792L64.6394 62.0366C64.4114 62.3335 64.4874 62.779 64.7915 63.0759C64.9435 63.2244 65.0955 63.2244 65.2475 63.2244Z" fill="#142784"/>
<path d="M70.1107 60.032C67.9825 59.8835 65.9303 58.6956 67.4504 58.1759C69.0466 57.6563 70.7188 57.6562 70.7188 57.6562L70.1107 60.032Z" fill="#FFCFBA"/>
<path d="M119.439 38.057C121.187 39.0221 119.059 51.8658 113.814 55.3551C109.102 58.4732 108.418 44.2932 107.81 42.8826C107.126 41.472 100.589 34.9388 100.589 34.9388L105.453 30.4844C105.453 30.4844 113.586 34.8646 119.439 38.057Z" fill="#FFCFBA"/>
<path d="M120.047 32.4883C129.395 34.7155 130.46 43.476 122.175 48.1531C122.175 48.1531 114.726 47.485 113.89 41.3972C112.978 35.5322 120.047 32.4883 120.047 32.4883Z" fill="#0F1D62"/>
<path d="M122.175 46.3711C128.635 47.3362 133.956 56.9133 121.415 60.4769C110.318 53.424 122.175 46.3711 122.175 46.3711Z" fill="#0F1D62"/>
<path d="M122.252 59.2148C129.548 66.8617 124.38 69.5343 117.843 72.4297C115.107 66.9359 115.639 64.4117 122.252 59.2148Z" fill="#0F1D62"/>
<path d="M119.821 48.3757C119.897 48.3757 120.049 48.3757 120.125 48.3015C120.125 48.3015 122.329 47.4106 124.609 47.5591C125.065 47.5591 125.369 47.2621 125.445 46.8909C125.445 46.5197 125.141 46.1485 124.761 46.0743C122.101 45.8515 119.593 46.8909 119.517 46.8909C119.137 47.0394 118.985 47.4848 119.137 47.856C119.213 48.2272 119.517 48.3757 119.821 48.3757Z" fill="#B7C1F4"/>
<path d="M120.429 60.7748C120.505 60.7748 120.581 60.7748 120.657 60.7748C120.657 60.7748 121.797 60.4778 123.926 60.7748C124.382 60.849 124.686 60.5521 124.762 60.1809C124.838 59.8097 124.534 59.4384 124.154 59.3642C121.721 58.993 120.353 59.3642 120.277 59.3642C119.897 59.4384 119.669 59.8839 119.745 60.2551C119.821 60.5521 120.125 60.7748 120.429 60.7748Z" fill="#B7C1F4"/>
<path d="M121.111 32.8593C121.948 29.1473 115.335 29.8897 111.079 25.9549C106.822 22.0201 93.5969 16.2293 88.9605 23.208C84.3241 30.1867 86.0723 37.0168 89.4926 37.4623C92.9129 37.9077 95.7159 38.5576 99.5255 34.1957C98.9934 31.82 100.894 30.4836 101.882 31.82C102.87 33.1563 102.87 34.3442 103.63 34.6411C113.815 38.0562 116.323 32.5624 119.059 34.4926C121.796 36.4971 121.111 32.8593 121.111 32.8593Z" fill="#0F1D62"/>
<path d="M117.086 34.7892C117.314 34.7892 117.466 34.715 117.618 34.5665C117.618 34.5665 119.67 32.562 121.874 33.0074C122.254 33.0817 122.71 32.859 122.786 32.4135C122.862 32.0423 122.634 31.5969 122.178 31.5226C119.138 30.8545 116.63 33.3786 116.554 33.4529C116.25 33.7498 116.25 34.1953 116.554 34.4923C116.706 34.715 116.858 34.7892 117.086 34.7892Z" fill="#B7C1F4"/>
<path d="M72.1511 58.8514C72.1511 58.8514 92.0019 67.545 94.3581 66.5056C96.258 65.6077 100.754 55.4787 106.524 47.9414C106.754 50.5159 108.428 56.7614 111.312 60.405C106.298 67.0772 100.437 75.8815 94.3581 74.3596C83.3099 73.0284 68.6677 59.5857 68.6677 59.5857L72.1511 58.8514Z" fill="#FFCFBA"/>
<path fill-rule="evenodd" clip-rule="evenodd" d="M29.6516 63.3105C34.2345 63.3105 38.2026 65.8801 40.1262 69.6238C40.8536 69.2999 41.6622 69.1194 42.5139 69.1194C45.6948 69.1194 48.2734 71.6363 48.2734 74.7411H41.3625V74.7413H23.3156C23.3156 74.7414 23.3156 74.7414 23.3156 74.7415H5.26912C5.26912 69.7738 9.30895 65.7468 14.2923 65.7468C16.5622 65.7468 18.6362 66.5822 20.222 67.9615C22.3545 65.1404 25.7841 63.3105 29.6516 63.3105Z" fill="#2F4DDF"/>
<ellipse rx="5.70798" ry="5.27586" transform="matrix(-1 0 0 1 39.0772 17.5864)" fill="#FFD789"/>
<path fill-rule="evenodd" clip-rule="evenodd" d="M149.646 0C153.015 0 155.932 1.88902 157.346 4.64114C157.881 4.40298 158.476 4.27028 159.102 4.27028C161.44 4.27028 163.336 6.12054 163.336 8.40295H158.255V8.40309H144.989C144.989 8.40311 144.989 8.40314 144.989 8.40316H131.723C131.723 4.75131 134.692 1.79089 138.356 1.79089C140.024 1.79089 141.549 2.40493 142.715 3.41868C144.282 1.34502 146.803 0 149.646 0Z" fill="white"/>
</svg>
