<svg width="82" height="82" viewBox="0 0 82 82" fill="none" xmlns="http://www.w3.org/2000/svg">
<g opacity="0.2">
<path d="M5.74094 15.4173V6.39728C5.74094 5.57728 6.39758 4.92062 7.21759 4.92062H16.2376C17.2209 4.92062 17.8776 4.26399 17.8776 3.28062C17.8776 2.29726 17.221 1.64062 16.2376 1.64062H7.21759C4.59425 1.64062 2.46094 3.77394 2.46094 6.39728V15.4173C2.46094 16.4006 3.11758 17.0573 4.10094 17.0573C5.0843 17.0573 5.74094 16.2373 5.74094 15.4173Z" fill="white"/>
<path d="M4.10094 54.1211C3.11759 54.1211 2.46094 54.7777 2.46094 55.7611V64.6179C2.46094 67.2413 4.59425 69.3746 7.21759 69.3746H16.2376C17.2209 69.3746 17.8776 68.7179 17.8776 67.7346C17.8776 66.7512 17.221 66.0946 16.2376 66.0946H7.21759C6.39759 66.0946 5.74094 65.4379 5.74094 64.6179V55.7611C5.74094 54.7777 4.92094 54.1211 4.10094 54.1211Z" fill="white"/>
<path d="M74.783 69.3746C77.4064 69.3746 79.5397 67.2413 79.5397 64.6179V55.7611C79.5397 54.7777 78.8831 54.1211 77.8997 54.1211C76.9163 54.1211 76.2597 54.7777 76.2597 55.7611V64.6179C76.2597 65.4379 75.6031 66.0946 74.783 66.0946H65.763C64.7797 66.0946 64.123 66.7512 64.123 67.7346C64.123 68.7179 64.7797 69.3746 65.763 69.3746H74.783Z" fill="white"/>
<path d="M74.783 1.64062H65.763C64.7797 1.64062 64.123 2.29726 64.123 3.28062C64.123 4.26399 64.7797 4.92062 65.763 4.92062H74.783C75.6031 4.92062 76.2597 5.57726 76.2597 6.39728V15.4173C76.2597 16.4006 76.9163 17.0573 77.8997 17.0573C78.8831 17.0573 79.5397 16.4006 79.5397 15.4173V6.39728C79.5397 3.77394 77.4064 1.64062 74.783 1.64062Z" fill="white"/>
<path d="M17.3848 44.4434C20.6648 57.4002 29.8479 69.3697 41.0016 69.3697C52.1552 69.3729 61.3384 57.3994 64.6184 44.4434H17.3848Z" fill="white"/>
<path d="M41.0006 9.67773C25.5838 9.67773 16.0742 19.1881 16.0742 34.4409V34.6043H65.931L65.9278 34.4409C65.9278 19.0241 56.4175 9.67773 41.0015 9.67773H41.0006Z" fill="white"/>
<path d="M59.6979 79.2141C59.8613 78.5575 59.6979 77.7375 59.2046 77.4108C55.7613 74.7875 53.958 71.5075 53.7913 68.0645C50.018 70.8511 45.7547 72.4911 40.9977 72.4911C36.4044 72.4911 31.9777 70.8511 28.2041 68.0645C28.2041 71.5078 26.2374 74.7878 22.7907 77.4108C22.2975 77.9041 21.9707 78.5575 22.2975 79.2141C22.4608 79.8708 23.1175 80.3608 23.9375 80.3608H58.0511C58.7141 80.3608 59.3676 79.8675 59.6975 79.2141H59.6979Z" fill="white"/>
<path d="M80.3606 39.5248C80.3606 38.5414 79.704 37.8848 78.7206 37.8848H3.28063C2.29728 37.8848 1.64062 38.5414 1.64062 39.5248C1.64062 40.5081 2.29726 41.1648 3.28063 41.1648H78.7206C79.704 41.1648 80.3606 40.3448 80.3606 39.5248Z" fill="white"/>
</g>
</svg>
