<svg width="25" height="23" viewBox="0 0 25 23" fill="none" xmlns="http://www.w3.org/2000/svg">
<mask id="path-1-inside-1" fill="white">
<path fill-rule="evenodd" clip-rule="evenodd" d="M11.9863 4.21286L20.0391 9.44714V19.933H15.5056V15.3956C15.5056 15.1195 15.2818 14.8956 15.0056 14.8956H8.96873C8.69259 14.8956 8.46873 15.1195 8.46873 15.3956V19.933H3.93359V9.44714L11.9863 4.21286ZM1.93359 8.63311C1.93359 8.46387 2.0192 8.30612 2.1611 8.21389L11.7138 2.00461C11.8795 1.8969 12.0931 1.8969 12.2588 2.00461L21.8116 8.21389C21.9535 8.30612 22.0391 8.46387 22.0391 8.63311V21.433C22.0391 21.7091 21.8152 21.933 21.5391 21.933H2.43359C2.15745 21.933 1.93359 21.7091 1.93359 21.433V8.63311ZM10.4793 16.9062H13.4951V19.922H10.4793V16.9062Z"/>
</mask>
<path d="M20.0391 9.44714H22.0391V8.36177L21.1291 7.77025L20.0391 9.44714ZM11.9863 4.21286L13.0763 2.53597L11.9863 1.82749L10.8964 2.53597L11.9863 4.21286ZM20.0391 19.933V21.933H22.0391V19.933H20.0391ZM15.5056 19.933H13.5056V21.933H15.5056V19.933ZM8.46873 19.933V21.933H10.4687V19.933H8.46873ZM3.93359 19.933H1.93359V21.933H3.93359V19.933ZM3.93359 9.44714L2.84362 7.77025L1.93359 8.36177V9.44714H3.93359ZM2.1611 8.21389L3.25107 9.89078L3.25108 9.89078L2.1611 8.21389ZM11.7138 2.00461L12.8038 3.68149L12.8038 3.68149L11.7138 2.00461ZM12.2588 2.00461L13.3488 0.327719V0.327719L12.2588 2.00461ZM21.8116 8.21389L20.7216 9.89078L20.7216 9.89078L21.8116 8.21389ZM13.4951 16.9062H15.4951V14.9062H13.4951V16.9062ZM10.4793 16.9062V14.9062H8.47928V16.9062H10.4793ZM13.4951 19.922V21.922H15.4951V19.922H13.4951ZM10.4793 19.922H8.47928V21.922H10.4793V19.922ZM21.1291 7.77025L13.0763 2.53597L10.8964 5.88974L18.9491 11.124L21.1291 7.77025ZM22.0391 19.933V9.44714H18.0391V19.933H22.0391ZM15.5056 21.933H20.0391V17.933H15.5056V21.933ZM17.5056 19.933V15.3956H13.5056V19.933H17.5056ZM17.5056 15.3956C17.5056 14.0149 16.3864 12.8956 15.0056 12.8956V16.8956C14.1772 16.8956 13.5056 16.224 13.5056 15.3956H17.5056ZM15.0056 12.8956H8.96873V16.8956H15.0056V12.8956ZM8.96873 12.8956C7.58802 12.8956 6.46873 14.0149 6.46873 15.3956H10.4687C10.4687 16.224 9.79716 16.8956 8.96873 16.8956V12.8956ZM6.46873 15.3956V19.933H10.4687V15.3956H6.46873ZM3.93359 21.933H8.46873V17.933H3.93359V21.933ZM1.93359 9.44714V19.933H5.93359V9.44714H1.93359ZM10.8964 2.53597L2.84362 7.77025L5.02357 11.124L13.0763 5.88974L10.8964 2.53597ZM1.07113 6.537C0.361637 6.99817 -0.0664062 7.78693 -0.0664062 8.63311H3.93359C3.93359 9.14082 3.67677 9.61408 3.25107 9.89078L1.07113 6.537ZM10.6239 0.327719L1.07112 6.537L3.25108 9.89078L12.8038 3.68149L10.6239 0.327719ZM13.3488 0.327719C12.5203 -0.210799 11.4524 -0.210806 10.6239 0.327721L12.8038 3.68149C12.3067 4.00461 11.6659 4.0046 11.1689 3.68149L13.3488 0.327719ZM22.9016 6.537L13.3488 0.327719L11.1689 3.68149L20.7216 9.89078L22.9016 6.537ZM24.0391 8.63311C24.0391 7.78692 23.611 6.99816 22.9015 6.537L20.7216 9.89078C20.2959 9.61408 20.0391 9.14082 20.0391 8.63311H24.0391ZM24.0391 21.433V8.63311H20.0391V21.433H24.0391ZM21.5391 23.933C22.9198 23.933 24.0391 22.8137 24.0391 21.433H20.0391C20.0391 20.6045 20.7107 19.933 21.5391 19.933V23.933ZM2.43359 23.933H21.5391V19.933H2.43359V23.933ZM-0.0664062 21.433C-0.0664062 22.8137 1.05288 23.933 2.43359 23.933V19.933C3.26202 19.933 3.93359 20.6045 3.93359 21.433H-0.0664062ZM-0.0664062 8.63311V21.433H3.93359V8.63311H-0.0664062ZM13.4951 14.9062H10.4793V18.9062H13.4951V14.9062ZM15.4951 19.922V16.9062H11.4951V19.922H15.4951ZM10.4793 21.922H13.4951V17.922H10.4793V21.922ZM8.47928 16.9062V19.922H12.4793V16.9062H8.47928Z" fill="#9CA0AB" mask="url(#path-1-inside-1)"/>
</svg>
