<svg width="21" height="21" viewBox="0 0 21 21" fill="none" xmlns="http://www.w3.org/2000/svg">
<path fill-rule="evenodd" clip-rule="evenodd" d="M0.56735 7.21584C0.425453 7.30807 0.339844 7.46583 0.339844 7.63506V20.4349C0.339844 20.7111 0.563702 20.9349 0.839844 20.9349H19.9453C20.2215 20.9349 20.4453 20.7111 20.4453 20.4349V7.63506C20.4453 7.46583 20.3597 7.30807 20.2178 7.21584L10.6651 1.00656C10.4994 0.898855 10.2858 0.898855 10.1201 1.00656L0.56735 7.21584ZM8.88553 15.9081H11.9014V20.9345H13.9119V14.4002C13.9119 14.1226 13.6869 13.8976 13.4093 13.8976H7.37762C7.10002 13.8976 6.87498 14.1226 6.87498 14.4002V20.9345H8.88553V15.9081Z" fill="#2F4DDF"/>
</svg>
