<svg width="32" height="56" viewBox="0 0 32 56" fill="none" xmlns="http://www.w3.org/2000/svg">
<path d="M32 49.7889C32 48.1712 31.0977 45.029 27.776 43.559L23.6471 41.79V48.0474C23.6471 50.0207 24.8217 52.8636 27.8402 54.2025L32 56V49.7889Z" fill="#2F4DDF"/>
<path d="M0.018959 39.2308L8.91944 35.3195L25.3867 27.9946C28.4274 25.9682 28.5698 23.1503 28.6124 22.3066L28.614 22.2751V16.2335C28.614 16.0773 28.6098 15.9256 28.6014 15.7783L3.98922 26.5369C3.98922 26.5369 2.16984 27.273 1.00128 29.263C0.537327 30.053 0.205804 30.9643 0.0761679 31.9056C-0.0100341 32.5316 0.00039596 33.0018 0.00039596 33.0018V38.7984C0.00039596 38.9457 0.00674523 39.0898 0.018959 39.2308Z" fill="#2F4DDF"/>
<path d="M0.0761679 31.9059C-0.0100341 32.5318 0.00039596 33.002 0.00039596 33.002V38.7986C0.00039596 40.9447 1.34859 42.4249 2.54493 43.1116L17.9653 49.8651V44.2584C17.9653 40.7801 16.1939 38.4999 13.8788 37.4912L3.98922 33.161C3.59866 32.9442 3.19184 32.7243 2.8282 32.2839C1.93412 31.2012 1.91442 30.2021 1.91442 29.826C1.91442 28.7971 2.45449 27.256 3.98922 26.5371C3.98922 26.5371 2.16984 27.2732 1.00128 29.2632C0.537327 30.0533 0.205804 30.9646 0.0761679 31.9059Z" fill="#7387E9"/>
<path d="M15.5684 21.4757L19.7788 23.3187C20.4657 23.6109 20.6278 23.6854 21.4986 24.0854L21.5514 24.1096L23.3988 24.9083C24.9367 25.6298 25.4246 27.0302 25.5067 27.9137C26.2279 27.4157 26.7798 26.8729 27.2025 26.3253C27.4385 26.0197 27.4212 25.9693 27.5945 25.7306C27.9917 25.1835 28.6 23.7002 28.6 22.3323V19.4598C28.6 18.3142 28.6 16.5873 28.6 15.7666L15.5684 21.4757Z" fill="#1F3CC8"/>
<path d="M26.8497 25.1372C26.8497 26.0697 26.3634 27.3428 25.386 27.9941C28.4656 25.9417 28.5722 23.0774 28.6133 22.2746V16.233C28.6133 12.9973 26.7917 11.7124 24.2349 10.6301L0.0286674 -0.000211716L0.0103321 6.48483C0.00355911 9.00556 1.63007 11.6452 4.18687 12.7275L21.1123 20.136C21.7992 20.4282 21.9613 20.5027 22.8321 20.9027L22.8849 20.9269L24.7324 21.7256C26.5364 22.572 26.8956 24.3526 26.8497 25.1372Z" fill="#7387E9"/>
</svg>
