<svg width="23" height="23" viewBox="0 0 23 23" fill="none" xmlns="http://www.w3.org/2000/svg">
<path fill-rule="evenodd" clip-rule="evenodd" d="M20.218 11.0195C20.218 15.8796 16.2781 19.8195 11.418 19.8195C6.55786 19.8195 2.61797 15.8796 2.61797 11.0195C2.61797 6.15943 6.55786 2.21953 11.418 2.21953C16.2781 2.21953 20.218 6.15943 20.218 11.0195ZM22.418 11.0195C22.418 17.0947 17.4931 22.0195 11.418 22.0195C5.34284 22.0195 0.417969 17.0947 0.417969 11.0195C0.417969 4.9444 5.34284 0.0195312 11.418 0.0195312C17.4931 0.0195312 22.418 4.9444 22.418 11.0195ZM10.389 5.16182C10.389 4.85806 10.6353 4.61182 10.939 4.61182H12.039C12.3428 4.61182 12.589 4.85806 12.589 5.16182V5.88213C13.3365 6.13669 13.9591 6.65955 14.3423 7.33352L14.6142 7.81164C14.7643 8.0757 14.672 8.41147 14.4079 8.56161L13.4517 9.10531C13.1876 9.25545 12.8518 9.1631 12.7017 8.89904L12.4299 8.42092C12.2556 8.11453 11.9289 7.91188 11.5562 7.91188C11.0019 7.91188 10.5526 8.36119 10.5526 8.91544C10.5526 9.46969 11.0019 9.93054 11.5562 9.93054C13.1973 10.0695 14.4859 11.4455 14.4859 13.1226C14.4859 14.4264 13.7069 15.5483 12.589 16.0484V16.876C12.589 17.1798 12.3428 17.426 12.039 17.426H10.939C10.6353 17.426 10.389 17.1798 10.389 16.876V16.1998C9.57963 15.9652 8.90299 15.42 8.49617 14.7045L8.22432 14.2264C8.07418 13.9623 8.16653 13.6265 8.43059 13.4764L9.38683 12.9327C9.65089 12.7825 9.98666 12.8749 10.1368 13.139L10.4086 13.6171C10.5829 13.9235 10.9096 14.1261 11.2823 14.1261C11.8366 14.1261 12.2859 13.6768 12.2859 13.1226C12.2859 12.5683 11.8366 12.1075 11.2823 12.1075C9.64124 11.9685 8.35263 10.5925 8.35263 8.91544C8.35263 7.55799 9.19692 6.39773 10.389 5.93114V5.16182Z" fill="#2F4DDF"/>
</svg>
