<svg width="23" height="23" viewBox="0 0 23 23" fill="none" xmlns="http://www.w3.org/2000/svg">
<path fill-rule="evenodd" clip-rule="evenodd" d="M20.218 11.8711C20.218 16.7312 16.2781 20.6711 11.418 20.6711C6.55786 20.6711 2.61797 16.7312 2.61797 11.8711C2.61797 7.01099 6.55786 3.07109 11.418 3.07109C16.2781 3.07109 20.218 7.01099 20.218 11.8711ZM22.418 11.8711C22.418 17.9462 17.4931 22.8711 11.418 22.8711C5.34284 22.8711 0.417969 17.9462 0.417969 11.8711C0.417969 5.79596 5.34284 0.871094 11.418 0.871094C17.4931 0.871094 22.418 5.79596 22.418 11.8711ZM10.389 6.01412C10.389 5.71037 10.6353 5.46412 10.939 5.46412H12.039C12.3428 5.46412 12.589 5.71037 12.589 6.01412V6.73444C13.3365 6.989 13.9591 7.51186 14.3423 8.18583L14.6142 8.66395C14.7643 8.92801 14.672 9.26378 14.4079 9.41392L13.4517 9.95762C13.1876 10.1078 12.8518 10.0154 12.7017 9.75135L12.4299 9.27323C12.2556 8.96684 11.9289 8.76419 11.5562 8.76419C11.0019 8.76419 10.5526 9.2135 10.5526 9.76775C10.5526 10.322 11.0019 10.7828 11.5562 10.7828C13.1973 10.9218 14.4859 12.2978 14.4859 13.9749C14.4859 15.2787 13.7069 16.4006 12.589 16.9007V17.7284C12.589 18.0321 12.3428 18.2784 12.039 18.2784H10.939C10.6353 18.2784 10.389 18.0321 10.389 17.7284V17.0521C9.57963 16.8175 8.90299 16.2723 8.49617 15.5568L8.22432 15.0787C8.07418 14.8146 8.16653 14.4788 8.43059 14.3287L9.38683 13.785C9.65088 13.6349 9.98666 13.7272 10.1368 13.9913L10.4086 14.4694C10.5829 14.7758 10.9096 14.9784 11.2823 14.9784C11.8366 14.9784 12.2859 14.5291 12.2859 13.9749C12.2859 13.4206 11.8366 12.9598 11.2823 12.9598C9.64124 12.8208 8.35263 11.4448 8.35263 9.76775C8.35263 8.41029 9.19692 7.25003 10.389 6.78345V6.01412Z" fill="#9CA0AB"/>
</svg>
