<svg width="25" height="25" viewBox="0 0 25 25" fill="none" xmlns="http://www.w3.org/2000/svg">
<path fill-rule="evenodd" clip-rule="evenodd" d="M11.0109 0.619531C11.0109 0.288161 11.2796 0.0195312 11.6109 0.0195312H12.8109C13.1423 0.0195312 13.4109 0.28816 13.4109 0.619531V2.4938C15.0317 2.69591 16.5269 3.30202 17.7928 4.20819L19.1572 2.84374C19.3916 2.60943 19.7715 2.60943 20.0058 2.84374L20.8543 3.69227C21.0886 3.92658 21.0886 4.30648 20.8543 4.5408L19.5566 5.83849C20.7205 7.22028 21.5017 8.9351 21.7367 10.8195H23.6109C23.9423 10.8195 24.2109 11.0882 24.2109 11.4195V12.6195C24.2109 12.9509 23.9423 13.2195 23.6109 13.2195H21.7367C21.5181 14.9724 20.8269 16.5786 19.7947 17.9064L20.8541 18.9658C21.0884 19.2001 21.0884 19.58 20.8541 19.8143L20.0055 20.6628C19.7712 20.8971 19.3913 20.8971 19.157 20.6628L18.0976 19.6034C16.7698 20.6356 15.1637 21.3267 13.4109 21.5453V23.4195C13.4109 23.7509 13.1423 24.0195 12.8109 24.0195H11.6109C11.2796 24.0195 11.0109 23.7509 11.0109 23.4195V21.5453C9.1265 21.3103 7.41169 20.5291 6.02989 19.3652L4.73226 20.6628C4.49794 20.8971 4.11804 20.8971 3.88373 20.6628L3.0352 19.8143C2.80089 19.58 2.80089 19.2001 3.0352 18.9658L4.39959 17.6014C3.49343 16.3355 2.88731 14.8403 2.68521 13.2195H0.810938C0.479567 13.2195 0.210938 12.9509 0.210938 12.6195V11.4195C0.210938 11.0882 0.479567 10.8195 0.810937 10.8195H2.68521C2.90378 9.06673 3.59489 7.46067 4.62703 6.13286L3.03497 4.5408C2.80065 4.30648 2.80065 3.92658 3.03497 3.69227L3.88349 2.84374C4.11781 2.60943 4.49771 2.60943 4.73202 2.84374L6.32406 4.43578C7.65191 3.40355 9.25804 2.71239 11.0109 2.4938V0.619531ZM12.2109 19.2195C16.1874 19.2195 19.4109 15.996 19.4109 12.0195C19.4109 8.04308 16.1874 4.81953 12.2109 4.81953C8.23449 4.81953 5.01094 8.04308 5.01094 12.0195C5.01094 15.996 8.23449 19.2195 12.2109 19.2195Z" fill="#2F4DDF"/>
<circle cx="12.2118" cy="12.0204" r="4.95009" fill="#2F4DDF"/>
</svg>
