<svg width="25" height="25" viewBox="0 0 25 25" fill="none" xmlns="http://www.w3.org/2000/svg">
<path fill-rule="evenodd" clip-rule="evenodd" d="M11.0109 1.47109C11.0109 1.13972 11.2796 0.871094 11.6109 0.871094H12.8109C13.1423 0.871094 13.4109 1.13972 13.4109 1.47109V3.34537C15.0317 3.54747 16.5269 4.15358 17.7928 5.05975L19.1572 3.6953C19.3916 3.46099 19.7715 3.46099 20.0058 3.6953L20.8543 4.54383C21.0886 4.77815 21.0886 5.15804 20.8543 5.39236L19.5566 6.69005C20.7205 8.07184 21.5017 9.78666 21.7367 11.6711H23.6109C23.9423 11.6711 24.2109 11.9397 24.2109 12.2711V13.4711C24.2109 13.8025 23.9423 14.0711 23.6109 14.0711H21.7367C21.5181 15.824 20.8269 17.4301 19.7947 18.758L20.8541 19.8173C21.0884 20.0517 21.0884 20.4316 20.8541 20.6659L20.0055 21.5144C19.7712 21.7487 19.3913 21.7487 19.157 21.5144L18.0976 20.455C16.7698 21.4871 15.1637 22.1782 13.4109 22.3968V24.2711C13.4109 24.6025 13.1423 24.8711 12.8109 24.8711H11.6109C11.2796 24.8711 11.0109 24.6025 11.0109 24.2711V22.3968C9.1265 22.1618 7.41169 21.3807 6.02989 20.2168L4.73226 21.5144C4.49794 21.7487 4.11804 21.7487 3.88373 21.5144L3.0352 20.6659C2.80089 20.4316 2.80089 20.0517 3.0352 19.8173L4.39959 18.4529C3.49343 17.1871 2.88731 15.6918 2.68521 14.0711H0.810938C0.479567 14.0711 0.210938 13.8025 0.210938 13.4711V12.2711C0.210938 11.9397 0.479567 11.6711 0.810937 11.6711H2.68521C2.90378 9.91829 3.59489 8.31223 4.62703 6.98442L3.03497 5.39236C2.80065 5.15804 2.80065 4.77815 3.03497 4.54383L3.88349 3.6953C4.11781 3.46099 4.49771 3.46099 4.73202 3.6953L6.32406 5.28734C7.65191 4.25512 9.25804 3.56395 11.0109 3.34537V1.47109ZM12.2109 20.0711C16.1874 20.0711 19.4109 16.8475 19.4109 12.8711C19.4109 8.89464 16.1874 5.67109 12.2109 5.67109C8.23449 5.67109 5.01094 8.89464 5.01094 12.8711C5.01094 16.8475 8.23449 20.0711 12.2109 20.0711Z" fill="#9CA0AB"/>
</svg>
