<svg width="448" height="157" viewBox="0 0 448 157" fill="none" xmlns="http://www.w3.org/2000/svg">
<path d="M82 146C71.5066 146 63 137.27 63 126.5C63 115.73 71.5066 107 82 107C92.4934 107 101 115.73 101 126.5C101 137.27 92.4934 146 82 146Z" fill="#FF9794"/>
<path d="M432.5 128C423.94 128 417 120.613 417 111.5C417 102.387 423.94 95 432.5 95C441.06 95 448 102.387 448 111.5C448 120.613 441.06 128 432.5 128Z" fill="#2F4DDF"/>
<path d="M21.5 83C9.62588 83 0 73.3741 0 61.5C0 49.6259 9.62588 40 21.5 40C33.3741 40 43 49.6259 43 61.5C43 73.3741 33.3741 83 21.5 83Z" fill="#B7C1F4"/>
<path d="M122.5 78C117.253 78 113 73.299 113 67.5C113 61.701 117.253 57 122.5 57C127.747 57 132 61.701 132 67.5C132 73.299 127.747 78 122.5 78Z" fill="#FFD789"/>
<path d="M437 40C432.582 40 429 36.4183 429 32C429 27.5817 432.582 24 437 24C441.418 24 445 27.5817 445 32C445 36.4183 441.418 40 437 40Z" fill="#97DBC4"/>
<path d="M381.5 71C376.253 71 372 67.1944 372 62.5C372 57.8056 376.253 54 381.5 54C386.747 54 391 57.8056 391 62.5C391 67.1944 386.747 71 381.5 71Z" fill="#D9DEF9"/>
<path d="M208.616 85.4132L183 124.539L228.177 156.054L251.628 120.031C256.712 119.471 263.096 118.449 274.542 111.571C285.988 104.694 309.777 92.7379 322.719 84.5573C335.662 76.3767 335.196 73.1189 334.927 69.0199C334.657 64.9209 330.619 62.2996 325.85 62.6884C322.035 62.9994 306.953 69.1268 299.889 72.1515C301.602 66.893 302.33 61.9252 299.261 57.6336C296.807 54.2004 291.427 52.8855 289.044 52.6573C292.029 46.1353 290.671 43.0367 288.627 38.6777C286.992 35.1906 281.985 34.3701 279.685 34.3957C280.679 31.5692 280.523 24.2245 277.929 20.6549C275.334 17.0852 269.862 12.8764 262.208 17.1197C256.086 20.5144 243.955 32.9843 238.656 38.7949C237.568 37.4622 233.412 35.9938 231.47 35.4262C230.68 35.0008 228.915 33.7606 228.177 32.2032C227.254 30.2563 220.016 7.93894 216.988 3.87208C213.961 -0.194788 206.953 -1.82519 201.444 2.80286C195.934 7.43091 203.427 24.7128 206.878 33.3105C210.329 41.9082 212.261 45.2107 208.317 56.4693C205.162 65.4762 207.201 79.5181 208.616 85.4132Z" fill="#B7C1F4"/>
<path fill-rule="evenodd" clip-rule="evenodd" d="M283.041 31.82C283.868 32.3971 284.071 33.5357 283.494 34.3631C283.385 34.519 283.237 34.6798 283.151 34.7717C283.034 34.8987 282.877 35.0618 282.679 35.2637C282.282 35.6688 281.692 36.2556 280.857 37.0686C279.186 38.6958 276.515 41.2488 272.405 45.1039C270.234 47.1392 268.036 48.5026 265.876 49.2804C264.152 51.1709 263.283 52.8689 263.039 54.3329C262.794 55.8098 263.15 57.2414 264.275 58.6812C266.942 62.0949 270.161 64.3361 274.339 63.1465C275.012 62.9548 275.906 62.5322 276.98 61.8806C280.956 59.4683 286.074 54.7561 288.623 52.1702C289.331 51.4517 290.488 51.4434 291.206 52.1516C291.925 52.8598 291.933 54.0163 291.225 54.7347C288.647 57.3501 283.319 62.2875 278.954 64.9559C276.137 67.0847 274.746 69.4801 274.196 71.4545C273.917 72.4578 273.858 73.3396 273.925 74.0203C273.997 74.7347 274.191 75.0949 274.275 75.1977C274.434 75.3925 274.586 75.5873 274.737 75.7807C275.438 76.6761 276.117 77.5438 277.293 78.2622C278.645 79.0882 280.816 79.7732 284.59 79.3232C287.329 78.9965 290.657 77.0727 293.86 74.5113C297.001 72.0004 299.752 69.0985 301.304 67.2169C301.946 66.4387 303.098 66.3283 303.876 66.9703C304.654 67.6123 304.764 68.7636 304.122 69.5417C302.435 71.5872 299.507 74.6737 296.142 77.3646C292.839 80.0049 288.833 82.4963 285.022 82.9507C280.609 83.4769 277.578 82.7168 275.389 81.3798C273.591 80.2817 272.465 78.8228 271.768 77.9205C271.647 77.7633 271.539 77.623 271.442 77.5045C270.754 76.6594 270.404 75.5249 270.29 74.3824C270.173 73.2061 270.289 71.8685 270.677 70.4745C270.98 69.3878 271.45 68.2585 272.115 67.1314C267.378 67.1437 263.83 64.0447 261.397 60.9303C259.709 58.7708 259.005 56.323 259.436 53.7336C259.642 52.49 260.102 51.2645 260.782 50.0624C254.283 49.692 249.66 43.9803 250.096 38.531C250.245 36.6676 251.145 34.9721 252.292 33.5186C253.448 32.054 254.955 30.7096 256.536 29.527C259.697 27.1627 263.381 25.2805 265.827 24.2576C266.757 23.8684 267.827 24.3074 268.217 25.2381C268.606 26.1687 268.167 27.2387 267.236 27.6279C264.993 28.566 261.588 30.3102 258.724 32.4525C257.292 33.5231 256.052 34.6519 255.159 35.7824C254.258 36.924 253.807 37.9453 253.737 38.8224C253.406 42.9627 258.03 47.9799 264.291 45.9616C266.003 45.4099 267.905 44.3159 269.905 42.4393C274.007 38.5925 276.66 36.0566 278.308 34.4513C279.133 33.6481 279.701 33.0828 280.072 32.7054C280.257 32.5161 280.387 32.3804 280.471 32.2892C280.512 32.2451 280.535 32.2192 280.545 32.2079C281.135 31.4353 282.235 31.2583 283.041 31.82ZM245.739 52.5322C242.633 45.5376 237.301 39.6112 230.423 37.6622C229.452 37.3872 228.888 36.3774 229.163 35.4068C229.438 34.4362 230.448 33.8724 231.419 34.1474C239.697 36.4931 245.707 43.46 249.078 51.0494C252.434 58.606 253.393 67.2732 251.006 73.4111C250.64 74.3513 249.581 74.817 248.641 74.4512C247.701 74.0855 247.235 73.0269 247.601 72.0867C249.515 67.1672 248.861 59.5597 245.739 52.5322Z" fill="#7387E9"/>
</svg>
