<svg width="447" height="189" viewBox="0 0 447 189" fill="none" xmlns="http://www.w3.org/2000/svg">
<path d="M404.5 189C390.969 189 380 178.031 380 164.5C380 150.969 390.969 140 404.5 140C418.031 140 429 150.969 429 164.5C429 178.031 418.031 189 404.5 189Z" fill="#FF5D57"/>
<path d="M370.116 117.492C361.209 117.492 353.989 110.278 353.989 101.379C353.989 92.4806 361.209 85.2666 370.116 85.2666C379.022 85.2666 386.242 92.4806 386.242 101.379C386.242 110.278 379.022 117.492 370.116 117.492Z" fill="#2F4DDF"/>
<path d="M93.9489 48.3387C80.5892 48.3387 69.7591 37.5177 69.7591 24.1694C69.7591 10.821 80.5892 0 93.9489 0C107.309 0 118.139 10.821 118.139 24.1694C118.139 37.5177 107.309 48.3387 93.9489 48.3387Z" fill="#FFC047"/>
<path d="M104.644 116.272C98.2228 116.272 93.0172 111.066 93.0172 104.645C93.0172 98.2232 98.2228 93.0176 104.644 93.0176C111.066 93.0176 116.271 98.2232 116.271 104.645C116.271 111.066 111.066 116.272 104.644 116.272Z" fill="#97DBC4"/>
<path d="M437.957 18.0867C432.962 18.0867 428.913 14.0379 428.913 9.04335C428.913 4.04885 432.962 0 437.957 0C442.951 0 447 4.04885 447 9.04335C447 14.0379 442.951 18.0867 437.957 18.0867Z" fill="#BAB1F1"/>
<path d="M10.3347 155.029C4.62665 155.029 -0.000598907 150.402 -0.000598907 144.694C-0.000598907 138.986 4.62665 134.358 10.3347 134.358C16.0427 134.358 20.6699 138.986 20.6699 144.694C20.6699 150.402 16.0427 155.029 10.3347 155.029Z" fill="#D9DEF9"/>
<path d="M267.194 126.138L262.615 149.028C260.072 161.745 248.881 170.902 235.91 170.902H209.204C196.232 170.902 185.041 161.746 182.498 149.028L177.92 126.138H189.365C190.383 130.589 191.654 134.913 193.562 139.109C195.978 144.578 199.158 149.537 203.227 153.607C203.481 153.861 203.863 153.861 204.117 153.734C204.499 153.48 204.626 153.098 204.372 152.717C201.701 147.884 200.302 142.67 199.539 137.456C199.03 133.768 199.03 129.953 199.285 126.265H267.195L267.194 126.138Z" fill="#516AE4"/>
<path d="M310.177 106.044C309.414 105.027 308.396 104.518 307.252 104.391L283.216 104.264L283.47 103.119C284.106 99.8126 283.216 96.3789 281.054 93.7084C278.892 91.0378 275.712 89.5117 272.279 89.5117H173.084C169.65 89.5117 166.471 91.0378 164.309 93.7084C162.147 96.3789 161.257 99.8126 161.892 103.119L166.471 129.19L170.922 151.445C174.61 169.758 190.633 182.984 209.328 182.984H236.034C253.71 182.984 269.098 171.157 273.677 154.37C281.307 154.879 288.937 152.209 295.169 146.995C301.782 141.399 306.487 133.387 308.14 124.231L310.938 109.606C311.193 108.335 310.938 107.063 310.175 106.046L310.177 106.044ZM236.035 175.48H209.329C194.196 175.48 181.224 164.797 178.3 149.918L174.104 129.19L169.271 101.847C168.762 99.4311 170.67 97.2693 173.086 97.2693H272.281C274.698 97.2693 276.605 99.5583 276.096 101.847L275.588 104.391L274.062 113.166L271.264 129.317L268.085 145.086L267.067 150.046C266.813 151.317 266.559 152.462 266.177 153.607C261.98 166.451 249.899 175.481 236.037 175.481L236.035 175.48ZM300.639 122.576C298.096 136.183 287.541 145.722 275.459 145.595L278.765 129.19L281.563 113.039L302.419 113.166L300.639 122.576Z" fill="#B7C1F4"/>
<path d="M199.537 27.0708L199.919 27.4523L200.173 27.8339C200.428 28.0882 200.555 28.3426 200.809 28.5969C201.191 29.1056 201.572 29.6143 201.954 30.123C202.589 31.1403 203.225 32.2849 203.861 33.4294C204.37 34.5739 204.879 35.7184 205.26 36.9902C205.642 38.262 206.023 39.4065 206.15 40.8054C206.659 43.3489 206.786 46.0194 206.405 48.6902C206.15 51.3608 205.387 54.0313 204.243 56.4476C203.988 57.0835 203.734 57.7194 203.353 58.2281L202.844 59.1183L202.462 59.7542C202.335 60.0085 202.208 60.1357 202.081 60.3901L201.699 61.0259C201.445 61.4074 201.318 61.9161 201.063 62.2976C200.682 63.1878 200.3 64.0781 200.046 64.9682C199.919 65.3497 199.792 65.8584 199.665 66.2399L199.537 66.8758C199.537 67.1301 199.41 67.2573 199.41 67.5116C199.156 69.2921 199.156 71.0724 199.41 72.8528C199.537 73.743 199.792 74.6333 200.173 75.5234C200.3 76.032 200.555 76.4136 200.682 76.9223C200.809 77.1766 200.936 77.3038 200.936 77.5581L201.063 77.8125L201.191 77.9396V78.0668C202.081 78.8298 202.208 80.2287 201.445 80.9918C200.682 81.882 199.283 82.0092 198.52 81.2461L198.266 81.119C198.138 80.9918 198.011 80.8646 197.884 80.8646C197.63 80.6103 197.375 80.4831 197.121 80.2288C196.612 79.7201 196.104 79.3386 195.722 78.8299C194.832 77.8125 194.069 76.668 193.433 75.3962C192.161 72.8527 191.526 70.055 191.653 67.2572C191.653 65.8583 191.78 64.4593 192.034 63.0605C192.161 62.4247 192.289 61.7888 192.543 61.0258C192.67 60.6442 192.797 60.3899 192.797 60.0084C192.924 59.754 193.052 59.3725 193.179 59.1182C193.433 58.4823 193.687 57.8465 193.942 57.3377L194.323 56.4475C194.45 56.1931 194.578 55.8116 194.832 55.5573L195.595 54.0312C195.849 53.6497 195.977 53.141 196.231 52.7595C197.884 49.3258 198.647 45.5107 198.52 41.5683C198.52 39.5336 198.266 37.4988 197.757 35.4641L196.994 32.4119C196.867 31.9032 196.74 31.3946 196.485 30.8859C196.358 30.6315 196.358 30.3772 196.231 30.1228L196.104 29.7413C196.104 29.6141 195.976 29.487 195.976 29.3598L195.849 28.7239C195.595 27.5794 196.358 26.4349 197.502 26.3076C198.266 26.3076 199.029 26.562 199.537 27.0706L199.537 27.0708Z" fill="#B7C1F4"/>
<path d="M246.846 27.0708L247.228 27.4524L247.482 27.8339C247.737 28.0882 247.864 28.3426 248.118 28.5969C248.5 29.1056 248.881 29.6143 249.263 30.123C249.899 31.1404 250.534 32.2849 251.17 33.4294C251.679 34.5739 252.188 35.7184 252.569 36.9902C252.951 38.262 253.332 39.4065 253.459 40.8054C253.968 43.3489 254.095 46.0195 253.714 48.6902C253.459 51.3608 252.696 54.0313 251.552 56.4476C251.298 57.0835 251.043 57.7194 250.662 58.2281L250.153 59.1184L249.771 59.7542C249.644 60.0085 249.517 60.1357 249.39 60.3901L249.008 61.0259C248.754 61.4074 248.627 61.9161 248.373 62.2976C247.991 63.1878 247.609 64.0781 247.355 64.9682C247.228 65.3497 247.101 65.8584 246.974 66.2399L246.846 66.8758C246.846 67.1301 246.719 67.2573 246.719 67.5116C246.465 69.2921 246.465 71.0725 246.719 72.8528C246.846 73.743 247.101 74.6333 247.482 75.5234C247.609 76.032 247.864 76.4136 247.991 76.9223C248.118 77.1766 248.245 77.3038 248.245 77.5581L248.373 77.8125L248.5 77.9396V78.0668C249.39 78.8298 249.517 80.2287 248.754 80.9918C247.991 81.882 246.592 82.0092 245.829 81.2461L245.32 80.8646C245.193 80.7374 245.066 80.6103 244.939 80.6103C244.684 80.3559 244.43 80.2287 244.176 79.9744C243.667 79.4657 243.158 79.0842 242.777 78.5755C241.887 77.5581 241.124 76.4136 240.488 75.1418C239.216 72.5984 238.58 69.8007 238.707 67.0028C238.707 65.6039 238.835 64.2049 239.089 62.8062C239.216 62.1703 239.343 61.5345 239.598 60.7714C239.725 60.3899 239.852 60.1356 239.852 59.754C239.979 59.4997 240.106 59.1182 240.233 58.8638C240.488 58.228 240.742 57.5921 240.996 57.0833L241.378 56.1931C241.505 55.9388 241.632 55.5573 241.887 55.3029L242.65 53.7768C242.904 53.3953 243.031 52.8866 243.286 52.5051C244.939 49.0714 245.702 45.2564 245.575 41.314C245.575 39.2792 245.32 37.2445 244.812 35.2097L244.049 32.1576C244.176 31.9032 244.049 31.3946 243.921 30.8859C243.794 30.6315 243.794 30.3772 243.667 30.1228L243.54 29.7413C243.54 29.6141 243.413 29.487 243.413 29.3598L243.286 28.7239C243.031 27.5794 243.794 26.4349 244.939 26.3076C245.702 26.3076 246.338 26.562 246.846 27.0706L246.846 27.0708Z" fill="#B7C1F4"/>
</svg>
