<svg width="114" height="114" viewBox="0 0 114 114" fill="none" xmlns="http://www.w3.org/2000/svg">
<circle cx="57" cy="57" r="57" fill="#CBEDE1" fill-opacity="0.14"/>
<circle cx="56.6548" cy="57.3462" r="40.0727" fill="#CBEDE1" fill-opacity="0.42"/>
<circle cx="57.3458" cy="57.3458" r="26.9455" fill="#5CC7A3"/>
<path d="M53.2645 64.6819C53.0341 64.4402 53.0341 64.0483 53.2645 63.8066L67.9136 48.443C68.144 48.2013 68.5177 48.2013 68.7482 48.443L69.5828 49.3183C69.8132 49.56 69.8132 49.9519 69.5828 50.1936L54.9337 65.5573C54.7033 65.799 54.3296 65.799 54.0991 65.5572L53.2645 64.6819Z" fill="white"/>
<path d="M55.6745 64.682C55.9049 64.4403 55.9049 64.0484 55.6745 63.8067L48.8518 56.6512C48.6213 56.4095 48.2477 56.4095 48.0172 56.6512L47.1826 57.5265C46.9521 57.7682 46.9521 58.1601 47.1826 58.4018L54.0053 65.5573C54.2357 65.799 54.6094 65.799 54.8399 65.5573L55.6745 64.682Z" fill="white"/>
</svg>
