<svg width="16" height="21" viewBox="0 0 16 21" fill="none" xmlns="http://www.w3.org/2000/svg">
<path fill-rule="evenodd" clip-rule="evenodd" d="M10.4219 4.01953C10.4219 5.1241 9.52644 6.01953 8.42188 6.01953C7.31731 6.01953 6.42188 5.1241 6.42188 4.01953C6.42188 2.91496 7.31731 2.01953 8.42188 2.01953C9.52644 2.01953 10.4219 2.91496 10.4219 4.01953ZM12.4219 4.01953C12.4219 6.22867 10.631 8.01953 8.42188 8.01953C6.21274 8.01953 4.42188 6.22867 4.42188 4.01953C4.42188 1.81039 6.21274 0.0195312 8.42188 0.0195312C10.631 0.0195312 12.4219 1.81039 12.4219 4.01953ZM2.92188 15.0195C2.92188 13.3627 4.26502 12.0195 5.92188 12.0195H10.9219C12.5787 12.0195 13.9219 13.3627 13.9219 15.0195V18.0195H2.92188V15.0195ZM0.921875 15.0195C0.921875 12.2581 3.16045 10.0195 5.92188 10.0195H10.9219C13.6833 10.0195 15.9219 12.2581 15.9219 15.0195V18.0195V20.0195H13.9219H2.92188H0.921875V18.0195V15.0195Z" fill="#2F4DDF"/>
</svg>
